<svg width="40" height="35" fill="none" xmlns="http://www.w3.org/2000/svg"><g clip-path="url(#a)"><path d="M10 14.96v-.194c0-2.735 1.953-5.079 4.648-5.508 1.758-.313 3.594.273 4.883 1.562l.469.43.43-.43c1.289-1.289 3.125-1.875 4.883-1.562A5.582 5.582 0 0 1 30 14.766v.195a5.91 5.91 0 0 1-1.875 4.297l-7.07 6.601c-.274.274-.664.391-1.055.391-.43 0-.82-.117-1.094-.39l-7.07-6.602C10.664 18.164 10 16.602 10 14.96Z" fill="#1E6BF1"/></g><defs><clipPath id="a"><path fill="#fff" d="M0 0h40v35H0z"/></clipPath></defs></svg>