<svg width="36" height="33" fill="none" xmlns="http://www.w3.org/2000/svg"><g clip-path="url(#a)"><path d="m17.531 9.781.43.469.469-.43c1.289-1.289 3.125-1.875 4.883-1.562A5.582 5.582 0 0 1 28 13.766v.195a5.91 5.91 0 0 1-1.875 4.297l-7.07 6.601c-.274.274-.664.391-1.055.391-.43 0-.82-.117-1.094-.39l-7.07-6.602C8.664 17.164 8 15.602 8 13.96v-.195c0-2.735 1.953-5.079 4.648-5.508 1.758-.313 3.594.273 4.883 1.523 0 .04-.039 0 0 0Zm.43 3.125-1.758-1.797a3.82 3.82 0 0 0-3.242-1.015 3.697 3.697 0 0 0-3.086 3.672v.195c0 1.133.43 2.187 1.25 2.93L18 23.297l6.836-6.406a3.93 3.93 0 0 0 1.289-2.93v-.195c0-1.836-1.328-3.36-3.125-3.672a3.82 3.82 0 0 0-3.242 1.015l-1.797 1.797Z" fill="#1E6BF1"/></g><defs><clipPath id="a"><path fill="#fff" d="M0 0h36v33H0z"/></clipPath></defs></svg>